# xmcd
#
# Track frame offsets:
#	375
#	14599
#	34093
#	58221
#	80045
#	100434
#	118011
#	134693
#	154457
#	170729
#	187291
#	209617
#	236487
#
# Disc length: 3495 seconds
#
# Revision: 0
# Processed by: cddbd v1.5.2PL0 Copyright (c) Steve Scherf et al.
# Submitted via: EasyCDDAExtractor 9.1.3.1
#
DISCID=d10da20d
DTITLE=Liquid Fire
DYEAR=2006
DGENRE=Country
TTITLE0=Gonna Be An Old Man
TTITLE1=Outlaw In The Wind
TTITLE2=Reverend Jack Taylor
TTITLE3=Mississippi Rendezvous
TTITLE4=Because I Do
TTITLE5=Open Road
TTITLE6=Younger Days
TTITLE7=Stand...Elizeah
TTITLE8=Crank It Up
TTITLE9=Cowgirls Rule
TTITLE10=Will I Love You Be Alright
TTITLE11=Living On Dreams
TTITLE12="Munsoned Again"
EXTD=
EXTT0=
EXTT1=
EXTT2=
EXTT3=
EXTT4=
EXTT5=
EXTT6=
EXTT7=
EXTT8=
EXTT9=
EXTT10=
EXTT11=
EXTT12=
PLAYORDER=
